<?xml version="1.0" encoding="utf-8"?>
<!-- Generator: Adobe Illustrator 24.3.0, SVG Export Plug-In . SVG Version: 6.00 Build 0)  -->
<svg version="1.1" id="Capa_1" xmlns="http://www.w3.org/2000/svg" xmlns:xlink="http://www.w3.org/1999/xlink" x="0px" y="0px"
	 viewBox="0 0 1920 1080" style="enable-background:new 0 0 1920 1080;" xml:space="preserve">
<style type="text/css">
	.st0{fill:#FFFFFF;}
</style>
<g>
	<path d="M2980.42,2541c-1268.17,0-2536.34,0-3804.51,0c0-1254.31,0-2508.63,0-3762.94c1268.17,0,2536.34,0,3804.51,0
		C2980.42,32.37,2980.42,1286.69,2980.42,2541z M704.17,171.64c9.17,0,16.61,0,24.05,0c181.29-0.01,362.57-0.04,543.86-0.01
		c42.47,0.01,84.99-1.09,127.39,0.64c86.29,3.52,157.94,71.14,165.85,154.69c8.54,90.24-46.91,173.49-134.29,189.05
		c-53.49,9.53-109.32,6.01-166.33,8.44c0-85.79,0-167.12,0-249.35c-35.27,0-68.41,0-102.29,0c0,203.64,0,405.84,0,608.14
		c35,0,68.07,0,102.91,0c0-86.95,0-172.15,0-259.21c9.25,0,16.74,0.08,24.22-0.01c42.44-0.54,85.1,1.49,127.26-2.23
		c98.95-8.73,173.02-58.57,219.62-145.73c99.63-186.36-35.06-406.13-249.58-407.11c-221.22-1.02-442.44-0.24-663.66-0.2
		c-6.07,0-12.15,0.67-19,1.08C704.17,103.88,704.17,136,704.17,171.64z M489.05,774.41c-0.7,4.71-1.55,7.73-1.55,10.76
		c-0.01,63.95-2.75,128.06,0.76,191.83c6.2,112.61,62.13,195.88,163.33,244.72c190.42,91.9,408.74-46.77,410.69-259.75
		c1.08-117.09,0.15-234.2,0.15-351.31c0-104.48,0.03-208.96,0.05-313.45c0-7.27,0-14.55,0-22.19c-35.77,0-68.39,0-102.09,0
		c-0.3,5.52-0.73,9.83-0.73,14.13c-0.02,129.74,0.02,259.48,0.02,389.22c0,94.91,0.17,189.81-0.33,284.72
		c-0.08,14.42-2.06,29.15-5.44,43.19c-21.96,91.12-106.13,149.39-201.06,139.85c-89.64-9.01-160.27-86.11-162.45-179.22
		c-1.34-56.96-0.36-113.97-0.5-170.96c-0.02-6.78-0.57-13.57-0.93-21.54C554.68,774.41,522.13,774.41,489.05,774.41z"/>
	<path class="st0" d="M704.17,171.64c0-35.64,0-67.76,0-101.81c6.85-0.41,12.93-1.08,19-1.08c221.22-0.05,442.44-0.82,663.66,0.2
		c214.52,0.99,349.21,220.75,249.58,407.11c-46.6,87.16-120.67,137-219.62,145.73c-42.16,3.72-84.82,1.68-127.26,2.23
		c-7.48,0.1-14.97,0.01-24.22,0.01c0,87.06,0,172.26,0,259.21c-34.83,0-67.91,0-102.91,0c0-202.3,0-404.51,0-608.14
		c33.88,0,67.02,0,102.29,0c0,82.24,0,163.56,0,249.35c57.02-2.44,112.84,1.08,166.33-8.44c87.38-15.57,142.84-98.82,134.29-189.05
		c-7.91-83.54-79.55-151.17-165.85-154.69c-42.4-1.73-84.92-0.63-127.39-0.64c-181.29-0.03-362.57,0-543.86,0.01
		C720.78,171.64,713.34,171.64,704.17,171.64z"/>
	<path class="st0" d="M489.05,774.41c33.08,0,65.63,0,99.9,0c0.36,7.97,0.92,14.75,0.93,21.54c0.15,56.99-0.83,114,0.5,170.96
		c2.18,93.12,72.81,170.21,162.45,179.22c94.93,9.54,179.1-48.73,201.06-139.85c3.38-14.04,5.37-28.77,5.44-43.19
		c0.5-94.9,0.33-189.81,0.33-284.72c0-129.74-0.04-259.48-0.02-389.22c0-4.3,0.44-8.6,0.73-14.13c33.7,0,66.32,0,102.09,0
		c0,7.64,0,14.92,0,22.19c-0.02,104.48-0.05,208.96-0.05,313.45c0,117.1,0.93,234.21-0.15,351.31
		c-1.96,212.98-220.28,351.66-410.69,259.75C550.38,1172.87,494.46,1089.6,488.26,977c-3.51-63.76-0.77-127.87-0.76-191.83
		C487.5,782.14,488.35,779.11,489.05,774.41z"/>
</g>
</svg>
